<svg width="40" height="40" viewBox="0 0 40 40" fill="none" xmlns="http://www.w3.org/2000/svg">
<g id="default image">
<rect width="40" height="40" rx="20" fill="#EAECF0"/>
<g id="Group 18341">
<path id="Vector" d="M27.7066 8.22147L27.9835 9.07752C27.9856 9.08354 27.9854 9.09003 27.9829 9.09592C27.9804 9.10182 27.9757 9.1068 27.9696 9.11004C27.9636 9.11329 27.9564 9.11462 27.9494 9.11383C27.9424 9.11304 27.9359 9.11016 27.9309 9.10567C27.7487 8.94471 27.6888 8.71157 27.5389 8.57082C27.2177 8.27007 26.8328 8.14135 26.3842 8.18466C25.6125 8.25972 25.0666 8.61774 24.4342 8.92017C23.7524 9.2457 22.7263 9.23271 21.9522 9.16847C20.8989 9.08089 19.8948 8.8848 18.9397 8.5802C18.3189 8.38243 17.7947 8.14351 17.3671 7.86346C17.0384 7.64788 16.56 7.28795 15.9322 6.78365C15.9133 6.76873 15.8911 6.76152 15.8658 6.762C15.8307 6.76248 15.8048 6.74997 15.788 6.72446C15.7874 6.72366 15.7866 6.723 15.7857 6.72252C15.7847 6.72204 15.7836 6.72175 15.7826 6.72168C15.7815 6.72161 15.7804 6.72176 15.7794 6.72212C15.7783 6.72247 15.7774 6.72303 15.7767 6.72374L15.7613 6.73746C15.7537 6.74419 15.7537 6.75093 15.7613 6.75767C16.3033 7.23213 16.8848 7.66496 17.5056 8.05618C17.782 8.23037 18.0762 8.37569 18.3883 8.49214C19.8718 9.04504 21.4906 9.39078 23.1061 9.33159C23.7046 9.30922 24.1734 9.19806 24.7265 8.9245C25.2448 8.66826 25.8667 8.30736 26.4263 8.31169C27.045 8.31675 27.6288 8.643 27.7333 9.17063C27.8386 9.70476 27.9007 10.3609 27.9196 11.139C27.9277 11.4573 27.9738 11.8131 27.9147 12.1271C27.8996 12.2099 27.888 12.2931 27.8799 12.3768C27.8707 12.4774 27.8534 12.6011 27.828 12.7479C27.7892 12.9759 27.7938 13.198 27.8418 13.4141C27.8475 13.4389 27.8624 13.4612 27.8841 13.4773C27.9057 13.4935 27.9328 13.5025 27.9609 13.5028C28.0181 13.5043 28.0429 13.5276 28.0354 13.5729C28.0351 13.5742 28.0352 13.5756 28.0356 13.5769C28.0361 13.5782 28.0368 13.5794 28.0378 13.5805C28.0388 13.5815 28.04 13.5823 28.0414 13.5829C28.0428 13.5834 28.0444 13.5837 28.0459 13.5837C28.0534 13.5837 28.061 13.5837 28.0686 13.5837C28.0804 13.5837 28.085 13.5784 28.0823 13.5678C28.0613 13.4947 28.0702 13.4413 28.109 13.4076C28.0848 13.9759 28.0618 14.5427 28.0402 15.1081C28.0332 15.2862 27.9579 15.5193 27.8143 15.8075C27.6977 15.347 27.4847 15.016 27.1754 14.8144C27.2844 14.5843 27.3611 14.344 27.4053 14.0933C27.6135 12.9095 27.4547 11.7467 27.0158 10.6207C26.8755 10.2598 26.7602 10.0207 26.67 9.90325C26.4973 9.67853 26.2516 9.51757 25.9331 9.42037C25.7744 9.37177 25.5776 9.3761 25.3428 9.43336C24.6318 9.60732 23.9273 9.84479 23.2122 9.99276C23.0011 10.0365 22.7892 10.0772 22.5765 10.1147C21.1966 10.3582 19.8367 10.333 18.4968 10.039C16.3525 9.56834 14.4389 8.34995 13.089 6.79231C14.2432 6.28513 15.6185 5.81933 17.2149 5.39492C18.2514 5.11967 19.1959 4.9883 20.0484 5.00082C20.8436 5.01285 21.7886 5.13194 22.8834 5.3581C24.5662 5.70601 26.0943 6.37656 27.2474 7.57257C27.4785 7.81173 27.6315 8.02803 27.7066 8.22147ZM24.848 6.4906C23.8293 6.71965 22.8324 6.79111 21.8574 6.70498C20.6352 6.59671 19.4248 6.30919 18.2263 5.84243C18.2209 5.84027 18.215 5.83934 18.209 5.83974C18.2031 5.84014 18.1974 5.84185 18.1924 5.84472C18.1874 5.84759 18.1833 5.85152 18.1805 5.85617C18.1776 5.86081 18.1761 5.86601 18.1761 5.8713V5.89223C18.1761 5.89547 18.1772 5.89863 18.1792 5.90132C18.1813 5.90402 18.1841 5.90612 18.1875 5.90739C20.28 6.79592 22.6041 7.12939 24.8642 6.55484C24.8863 6.54955 24.8917 6.53776 24.8804 6.51947L24.8674 6.49782C24.8631 6.49108 24.8566 6.48868 24.848 6.4906ZM26.0935 7.41161C25.0966 7.68878 24.1743 7.88728 23.1264 7.9443C21.1286 8.05329 19.3697 7.60794 17.6287 6.76489C17.5105 6.70762 17.3609 6.61475 17.1801 6.48627C17.1693 6.47857 17.1596 6.47978 17.1509 6.48988L17.1371 6.50576C17.1339 6.50966 17.1315 6.51408 17.1302 6.51877C17.1288 6.52347 17.1285 6.52833 17.1293 6.5331C17.13 6.53786 17.1318 6.54243 17.1346 6.54653C17.1373 6.55064 17.1409 6.5542 17.1452 6.55701C18.3329 7.32355 19.6518 7.80427 21.1019 7.99916C22.8154 8.22941 24.4787 8.02009 26.0927 7.46358C26.0992 7.46131 26.1045 7.45691 26.1075 7.45128C26.1105 7.44565 26.111 7.43921 26.1089 7.43327L26.1024 7.41594C26.1008 7.4121 26.0978 7.41065 26.0935 7.41161Z" fill="#331203"/>
<path id="Vector_2" d="M24.8482 6.4908C24.8568 6.48887 24.8633 6.49128 24.8676 6.49801L24.8806 6.51967C24.8919 6.53795 24.8865 6.54974 24.8644 6.55504C22.6042 7.12958 20.2801 6.79612 18.1876 5.90758C18.1843 5.90632 18.1814 5.90421 18.1794 5.90152C18.1774 5.89882 18.1763 5.89566 18.1763 5.89243V5.87149C18.1763 5.8662 18.1778 5.861 18.1806 5.85636C18.1835 5.85172 18.1876 5.84778 18.1926 5.84492C18.1976 5.84205 18.2033 5.84034 18.2092 5.83993C18.2151 5.83953 18.2211 5.84046 18.2265 5.84262C19.425 6.30938 20.6353 6.5969 21.8576 6.70517C22.8326 6.7913 23.8294 6.71985 24.8482 6.4908Z" fill="#0C0100"/>
<path id="Vector_3" d="M23.1263 7.94544C24.1742 7.88842 25.0965 7.68993 26.0934 7.41276C26.0977 7.4118 26.1007 7.41324 26.1023 7.41709L26.1088 7.43441C26.1109 7.44035 26.1104 7.44679 26.1074 7.45242C26.1044 7.45806 26.0991 7.46245 26.0926 7.46473C24.4787 8.02123 22.8154 8.23055 21.1018 8.0003C19.6518 7.80541 18.3329 7.3247 17.1452 6.55815C17.1409 6.55534 17.1372 6.55178 17.1345 6.54768C17.1317 6.54357 17.1299 6.53901 17.1292 6.53424C17.1284 6.52948 17.1287 6.52461 17.1301 6.51992C17.1315 6.51523 17.1338 6.5108 17.1371 6.5069L17.1508 6.49102C17.1595 6.48092 17.1692 6.47972 17.18 6.48742C17.3609 6.6159 17.5104 6.70877 17.6286 6.76603C19.3697 7.60909 21.1286 8.05443 23.1263 7.94544Z" fill="#0C0100"/>
<path id="Vector_4" d="M27.7063 8.22051C27.9196 8.52318 28.0634 8.84149 28.1379 9.17544C28.1403 9.18665 28.1387 9.19823 28.1333 9.20858C28.1279 9.21893 28.1191 9.22753 28.108 9.23319L28.0318 9.27289C28.0043 9.28684 27.9927 9.30777 27.997 9.33568C28.2003 10.666 28.1719 12.0684 28.1088 13.4066C28.0699 13.4403 28.061 13.4937 28.0821 13.5668C28.0848 13.5774 28.0802 13.5827 28.0683 13.5827C28.0607 13.5827 28.0532 13.5827 28.0456 13.5827C28.0441 13.5827 28.0426 13.5825 28.0412 13.5819C28.0398 13.5813 28.0385 13.5805 28.0375 13.5795C28.0365 13.5785 28.0358 13.5772 28.0354 13.5759C28.0349 13.5746 28.0349 13.5732 28.0351 13.5719C28.0426 13.5267 28.0178 13.5033 27.9606 13.5019C27.9325 13.5015 27.9055 13.4925 27.8838 13.4764C27.8622 13.4602 27.8473 13.4379 27.8415 13.4131C27.7935 13.197 27.7889 12.975 27.8278 12.7469C27.8532 12.6001 27.8704 12.4765 27.8796 12.3759C27.8877 12.2922 27.8993 12.2089 27.9144 12.1261C27.9735 11.8122 27.9274 11.4563 27.9193 11.138C27.9004 10.3599 27.8383 9.7038 27.733 9.16967C27.6286 8.64204 27.0447 8.31578 26.426 8.31073C25.8665 8.3064 25.2445 8.6673 24.7263 8.92354C24.1732 9.1971 23.7043 9.30825 23.1059 9.33063C21.4903 9.38982 19.8716 9.04408 18.388 8.49118C18.076 8.37473 17.7817 8.22941 17.5053 8.05522C16.8845 7.664 16.3031 7.23117 15.761 6.75671C15.7535 6.74997 15.7535 6.74323 15.761 6.7365L15.7764 6.72278C15.7772 6.72207 15.7781 6.72151 15.7791 6.72116C15.7801 6.7208 15.7812 6.72065 15.7823 6.72072C15.7834 6.72079 15.7844 6.72107 15.7854 6.72156C15.7863 6.72204 15.7871 6.7227 15.7878 6.7235C15.8045 6.74901 15.8304 6.76152 15.8655 6.76104C15.8909 6.76056 15.913 6.76777 15.9319 6.78269C16.5598 7.28699 17.0381 7.64692 17.3669 7.8625C17.7944 8.14255 18.3186 8.38147 18.9395 8.57924C19.8945 8.88384 20.8986 9.07993 21.9519 9.1675C22.7261 9.23174 23.7521 9.24474 24.4339 8.91921C25.0664 8.61677 25.6122 8.25876 26.3839 8.1837C26.8325 8.14039 27.2175 8.26911 27.5387 8.56986C27.6885 8.71061 27.7484 8.94375 27.9306 9.10471C27.9356 9.1092 27.9421 9.11208 27.9491 9.11287C27.9562 9.11366 27.9633 9.11233 27.9694 9.10908C27.9754 9.10583 27.9801 9.10086 27.9826 9.09496C27.9851 9.08907 27.9854 9.08258 27.9833 9.07656L27.7063 8.22051Z" fill="#0C0100"/>
<path id="Vector_5" d="M13.0889 6.79297C14.4388 8.3506 16.3523 9.569 18.4967 10.0396C19.8366 10.3336 21.1965 10.3589 22.5764 10.1154C22.7891 10.0779 23.001 10.0372 23.2121 9.99341C23.9271 9.84544 24.6317 9.60797 25.3427 9.43402C25.5775 9.37676 25.7743 9.37243 25.933 9.42103C26.2515 9.51823 26.4972 9.67919 26.6699 9.90391C26.7601 10.0213 26.8753 10.2605 27.0157 10.6214C27.4546 11.7474 27.6133 12.9102 27.4052 14.0939C27.3609 14.3446 27.2843 14.585 27.1752 14.815C27.0554 14.7563 26.9579 14.7505 26.8829 14.7977C26.8116 14.1038 26.6991 13.4376 26.5452 12.799C26.3314 11.9093 25.8339 11.1745 25.0528 10.5947C24.9078 10.4871 24.8017 10.4229 24.6033 10.459C24.3161 10.5105 24.0481 10.6 23.7992 10.7275L23.6113 10.7022C22.9732 10.8288 22.3324 10.9151 21.6889 10.9613C20.2199 11.0662 18.7782 10.9313 17.3638 10.5564C16.5907 10.286 15.9072 9.98764 15.3134 9.66139C14.7881 9.37315 14.2814 9.01971 13.7934 8.60107C13.7669 8.57797 13.5863 8.39921 13.2516 8.06477C13.0735 7.88673 12.8753 7.72168 12.6572 7.56962C12.5709 7.46665 12.5004 7.32541 12.4459 7.14593C12.4383 7.12139 12.447 7.1031 12.4718 7.09107L13.0889 6.79297Z" fill="#0C0100"/>
<path id="Vector_6" d="M12.6573 7.57031C12.8754 7.72237 13.0735 7.88742 13.2517 8.06546C13.5864 8.3999 13.767 8.57866 13.7935 8.60176C14.2815 9.0204 14.7881 9.37384 15.3134 9.66208C15.9073 9.98833 16.5907 10.2867 17.3638 10.5571C16.8326 10.6139 16.3076 10.6671 15.7888 10.7166C15.6328 10.732 15.4981 10.7717 15.3847 10.8357C14.6526 11.25 14.1206 11.9451 14.0931 12.7275C14.0715 13.3247 14.0879 14.0313 14.1425 14.8475L14.302 16.8613C14.3017 16.8644 14.3001 16.8674 14.2976 16.8696C14.2951 16.8718 14.2919 16.8733 14.2883 16.8736C14.2848 16.8739 14.2813 16.8732 14.2783 16.8715C14.2753 16.8697 14.2731 16.8672 14.272 16.8642C14.1619 16.2773 13.8437 15.2221 13.259 14.872C13.2358 14.8585 13.2136 14.8595 13.1926 14.8749C12.8436 15.1268 12.6808 15.6169 12.6136 16.0326C11.7844 13.5591 11.5293 10.4813 12.982 8.13187C12.9961 8.10973 12.9936 8.08928 12.9747 8.07052C12.8414 7.93434 12.7356 7.7676 12.6573 7.57031ZM12.5196 13.7799H12.548C12.5522 13.7799 12.5564 13.7792 12.5603 13.7777C12.5641 13.7763 12.5677 13.7741 12.5706 13.7714C12.5736 13.7687 12.5759 13.7655 12.5774 13.762C12.5789 13.7585 12.5797 13.7548 12.5796 13.751C12.5483 12.6659 12.5612 11.9398 12.6184 11.5727C12.7213 10.9158 12.8209 10.2785 13.1399 9.67146C13.3024 9.36349 13.5116 9.14671 13.7675 9.02112C13.7773 9.01631 13.7837 9.01078 13.787 9.00452C13.7908 8.99634 13.7916 8.98816 13.7894 8.97998C13.7845 8.96218 13.7719 8.95448 13.7513 8.95688C13.2217 9.01823 12.9164 9.79344 12.7391 10.1868C12.6047 10.4849 12.5302 10.9743 12.5124 11.1937C12.4616 11.8299 12.4503 12.6799 12.4783 13.7438C12.4789 13.7679 12.4927 13.7799 12.5196 13.7799ZM13.6906 10.1818C13.1383 10.6293 13.0193 11.1858 13.0428 11.8253C13.0757 12.7444 13.1364 13.6664 13.225 14.5912C13.2266 14.6061 13.2355 14.6136 13.2517 14.6136H13.2833C13.2973 14.6136 13.3041 14.6073 13.3035 14.5948C13.2506 13.7157 13.2147 12.8406 13.1958 11.9697C13.1883 11.6222 13.2055 11.3636 13.2476 11.1937C13.4469 10.3961 14.0955 9.90965 14.9766 9.74003C14.9841 9.73848 14.9906 9.73435 14.9947 9.72853C14.9988 9.72272 15.0001 9.71569 14.9984 9.70899L14.9936 9.6859C14.9919 9.68012 14.9879 9.67747 14.9814 9.67796C14.4637 9.73618 14.0334 9.90412 13.6906 10.1818Z" fill="#331203"/>
<path id="Vector_7" d="M12.5197 13.7785C12.4927 13.7785 12.4789 13.7665 12.4784 13.7425C12.4503 12.6785 12.4616 11.8285 12.5124 11.1924C12.5302 10.9729 12.6047 10.4836 12.7391 10.1854C12.9165 9.79207 13.2218 9.01686 13.7514 8.95551C13.7719 8.9531 13.7846 8.9608 13.7894 8.97861C13.7916 8.98679 13.7908 8.99497 13.787 9.00315C13.7838 9.0094 13.7773 9.01494 13.7676 9.01975C13.5117 9.14534 13.3025 9.36212 13.14 9.67009C12.8209 10.2771 12.7213 10.9145 12.6185 11.5713C12.5612 11.9384 12.5483 12.6646 12.5796 13.7497C12.5797 13.7534 12.579 13.7572 12.5774 13.7607C12.5759 13.7642 12.5736 13.7674 12.5706 13.77C12.5677 13.7727 12.5642 13.7749 12.5603 13.7763C12.5564 13.7778 12.5522 13.7785 12.548 13.7785H12.5197Z" fill="#0C0100"/>
<path id="Vector_8" d="M13.6908 10.1796C14.0336 9.902 14.4638 9.73406 14.9816 9.67584C14.988 9.67536 14.9921 9.678 14.9937 9.68378L14.9986 9.70687C15.0003 9.71357 14.9989 9.7206 14.9948 9.72641C14.9907 9.73223 14.9842 9.73636 14.9767 9.73791C14.0957 9.90753 13.447 10.394 13.2478 11.1916C13.2057 11.3615 13.1884 11.6201 13.196 11.9675C13.2149 12.8385 13.2508 13.7136 13.3037 14.5927C13.3042 14.6052 13.2975 14.6115 13.2834 14.6115H13.2518C13.2356 14.6115 13.2267 14.604 13.2251 14.5891C13.1366 13.6642 13.0758 12.7423 13.0429 11.8232C13.0194 11.1837 13.1385 10.6272 13.6908 10.1796Z" fill="#0C0100"/>
<path id="Vector_9" d="M26.883 14.798C26.7556 14.9506 26.659 15.0911 26.5931 15.2196C26.3664 15.662 26.253 16.2604 26.1582 16.7794C26.1566 16.788 26.151 16.7919 26.1412 16.7909H26.1404C26.1302 16.7904 26.1253 16.7856 26.1259 16.7765C26.1809 14.8117 26.3777 11.6149 23.7993 10.7278C24.0482 10.6003 24.3162 10.5108 24.6034 10.4593C24.8018 10.4232 24.9079 10.4875 25.0529 10.595C25.8341 11.1749 26.3315 11.9096 26.5453 12.7994C26.6992 13.4379 26.8118 14.1041 26.883 14.798Z" fill="#331203"/>
<path id="Vector_10" d="M17.3638 10.5547C18.7782 10.9295 20.22 11.0645 21.6889 10.9596C22.3324 10.9134 22.9733 10.827 23.6114 10.7005C21.5342 11.8684 18.7291 11.8373 16.3848 11.7269C15.3685 11.6792 14.9571 12.3758 14.7344 13.1171C14.5401 13.7652 14.3427 14.3412 14.1424 14.845C14.0879 14.0289 14.0715 13.3223 14.0931 12.7251C14.1206 11.9427 14.6526 11.2476 15.3847 10.8333C15.498 10.7693 15.6327 10.7296 15.7888 10.7142C16.3076 10.6646 16.8326 10.6115 17.3638 10.5547Z" fill="#F3A462"/>
<path id="Vector_11" d="M23.6116 10.7012L23.7994 10.7264C26.3778 11.6135 26.181 14.8104 26.126 16.7751C26.1254 16.7842 26.1303 16.789 26.1406 16.7895H26.1414C26.1511 16.7905 26.1568 16.7866 26.1584 16.778C26.2531 16.259 26.3665 15.6606 26.5932 15.2182C26.6591 15.0897 26.7557 14.9492 26.8831 14.7966C26.9582 14.7495 27.0556 14.7553 27.1755 14.814C27.4848 15.0156 27.6978 15.3467 27.8144 15.8072C27.8279 15.9409 27.8349 16.0988 27.8355 16.2807C27.8395 17.2291 27.5407 18.3695 26.675 18.9795C26.4013 19.1722 26.126 19.1931 25.8644 18.9881C25.8369 18.9665 25.8201 18.9718 25.8142 19.004C25.7016 19.6413 25.6004 20.4873 25.1121 20.9889C24.4664 21.6515 23.7773 22.2653 23.0447 22.8302C22.9832 22.8336 22.9238 22.8702 22.8666 22.9399C22.8126 23.0063 22.7678 23.0533 22.7321 23.0807C22.2905 23.4209 21.9804 23.642 21.8017 23.744C21.1125 24.1374 19.7788 24.0934 18.9998 23.9865C18.424 23.9079 17.9139 23.5708 17.4903 23.2337C17.4795 23.2251 17.4679 23.2198 17.4555 23.2178C17.4264 23.213 17.4131 23.2164 17.4158 23.2279C17.3991 23.201 17.3821 23.181 17.3648 23.168C16.5216 22.5314 15.7058 21.8265 14.9176 21.0532C14.5597 20.7031 14.4544 20.4606 14.3864 19.9257C14.3551 19.6808 14.3232 19.4359 14.2908 19.1909C14.2876 19.1664 14.2722 19.1529 14.2447 19.1505C13.5458 19.0776 13.0219 18.2165 12.8575 17.7076C12.6761 17.1499 12.5949 16.591 12.6138 16.0309C12.681 15.6152 12.8437 15.1251 13.1928 14.8732C13.2138 14.8578 13.2359 14.8568 13.2592 14.8703C13.8438 15.2203 14.1621 16.2756 14.2722 16.8624C14.2733 16.8654 14.2755 16.868 14.2785 16.8697C14.2815 16.8714 14.285 16.8722 14.2885 16.8719C14.292 16.8715 14.2953 16.8701 14.2978 16.8679C14.3003 16.8656 14.3018 16.8627 14.3022 16.8595L14.1426 14.8457C14.3429 14.3419 14.5403 13.7659 14.7346 13.1177C14.9573 12.3765 15.3687 11.6799 16.385 11.7276C18.7293 11.838 21.5344 11.869 23.6116 10.7012Z" fill="#FFB381"/>
<path id="Vector_12" d="M23.0444 22.8301L23.3935 23.9265C23.3438 23.9515 23.306 23.9385 23.2801 23.8875C23.2737 23.8749 23.2641 23.8638 23.2521 23.8551C23.2401 23.8463 23.226 23.8401 23.2109 23.837C23.1958 23.8338 23.1801 23.8338 23.165 23.837C23.1499 23.8401 23.1358 23.8463 23.1238 23.855C22.6978 24.1659 22.2514 24.4539 21.7844 24.719C21.6732 24.7816 21.5533 24.8246 21.4248 24.8482C20.5967 24.9993 19.7685 25.0087 18.9404 24.8764C18.7388 24.8439 18.4505 24.7363 18.3185 24.644C17.9784 24.4062 17.6164 24.1844 17.2325 23.9785L17.4156 23.2278C17.4129 23.2162 17.4261 23.2129 17.4552 23.2177C17.4677 23.2196 17.4793 23.2249 17.4901 23.2336C17.9136 23.5706 18.4238 23.9077 18.9995 23.9864C19.7785 24.0932 21.1123 24.1373 21.8014 23.7439C21.9801 23.6419 22.2902 23.4207 22.7319 23.0805C22.7675 23.0531 22.8123 23.0062 22.8663 22.9398C22.9235 22.87 22.9829 22.8334 23.0444 22.8301Z" fill="#F3A462"/>
<path id="Vector_13" d="M23.3936 23.9278C23.5123 24.217 23.7453 24.7066 24.0924 25.3967C24.1923 25.5944 24.3324 25.7499 24.5127 25.8629C23.6511 26.7618 22.6226 27.3549 21.4274 27.6422C20.9021 27.7687 20.3298 27.8058 19.7106 27.7533C18.3396 27.6386 17.0836 26.8886 16.154 26.0109C16.1351 25.9926 16.1316 25.9722 16.1435 25.9496L16.2212 25.803C16.4836 25.6341 16.6847 25.3825 16.8245 25.048C16.9827 24.6684 17.1187 24.3123 17.2326 23.9798C17.6165 24.1857 17.9785 24.4076 18.3186 24.6453C18.4506 24.7377 18.7389 24.8452 18.9405 24.8777C19.7687 25.01 20.5968 25.0006 21.4249 24.8495C21.5534 24.826 21.6733 24.7829 21.7845 24.7203C22.2515 24.4552 22.6979 24.1672 23.1239 23.8564C23.1359 23.8476 23.15 23.8414 23.1651 23.8383C23.1802 23.8352 23.1959 23.8352 23.211 23.8383C23.2261 23.8414 23.2402 23.8476 23.2522 23.8564C23.2642 23.8651 23.2738 23.8763 23.2802 23.8888C23.3061 23.9398 23.3439 23.9528 23.3936 23.9278Z" fill="#FFB381"/>
<path id="Vector_14" d="M16.2213 25.8008L16.1436 25.9473C16.1317 25.9699 16.1352 25.9904 16.1541 26.0087C17.0838 26.8864 18.3397 27.6363 19.7107 27.7511C20.3299 27.8035 20.9022 27.7665 21.4275 27.6399C22.6227 27.3526 23.6512 26.7596 24.5128 25.8607L24.9679 26.0354C24.9101 26.0464 24.8718 26.0806 24.8529 26.1379C24.8454 26.161 24.8308 26.1797 24.8092 26.1942C24.6715 26.2887 24.4966 26.4064 24.4359 26.5536C24.4251 26.5786 24.4348 26.5938 24.465 26.5991C26.0382 26.8613 27.6097 27.1301 29.1796 27.4053C29.8129 27.5165 30.3128 27.657 30.6794 27.8269C30.8953 27.927 31.0424 28.0189 31.1207 28.1026C32.4439 29.5166 33.4035 31.1341 34.2789 32.7921C34.5758 33.3556 34.856 33.9258 35.1195 34.5028C26.4952 41.5381 13.4802 41.5237 4.84534 34.6377C4.88637 34.617 4.90877 34.5641 4.91255 34.4789C4.91525 34.4164 4.9274 34.3634 4.94899 34.3201C5.04833 34.1142 5.21406 33.7478 5.4462 33.2208C6.12157 31.6885 7.04393 30.0125 8.27805 28.7046C8.63598 28.3249 8.98176 28.0535 9.54214 27.959C12.1894 27.5122 13.9863 27.1628 15.8553 26.6807C15.9509 26.6556 16.0348 26.6296 16.1071 26.6027C16.1149 26.5999 16.1216 26.5953 16.1267 26.5893C16.1318 26.5834 16.135 26.5764 16.1361 26.5689C16.1372 26.5615 16.136 26.5539 16.1328 26.5469C16.1296 26.5399 16.1243 26.5338 16.1177 26.5291C15.8753 26.3645 15.7193 26.1853 15.6496 25.9913L16.2213 25.8008Z" fill="#0175A2"/>
<path id="Vector_15" d="M15.6495 25.9924C15.7191 26.1863 15.8752 26.3655 16.1176 26.5301C16.1242 26.5348 16.1294 26.5409 16.1327 26.5479C16.1359 26.5549 16.137 26.5625 16.136 26.57C16.1349 26.5774 16.1317 26.5845 16.1266 26.5904C16.1215 26.5963 16.1148 26.6009 16.107 26.6037C16.0347 26.6307 15.9507 26.6567 15.8552 26.6817C13.9862 27.1638 12.1892 27.5132 9.54203 27.96C8.98165 28.0545 8.63587 28.3259 8.27794 28.7056C7.04382 30.0135 6.12146 31.6895 5.44609 33.2219C5.21395 33.7488 5.04821 34.1152 4.94888 34.3212C4.92728 34.3645 4.91514 34.4174 4.91244 34.48C4.90866 34.5651 4.88625 34.6181 4.84522 34.6388L4.03948 33.961C4.02149 33.9458 4.0089 33.9263 4.00329 33.9047C3.99767 33.8832 3.99928 33.8606 4.0079 33.8397C4.70675 32.1558 5.52626 30.5029 6.64297 28.9987C7.09483 28.3909 7.74834 27.633 8.48849 27.5024C10.8984 27.0765 13.3189 26.6795 15.6495 25.9924Z" fill="#21A14B"/>
<path id="Vector_16" d="M24.9677 26.0371C26.4059 26.2917 27.8435 26.5409 29.2807 26.7849C30.101 26.9242 31.1148 27.0794 31.9068 27.454C31.9862 27.4915 32.1103 27.5984 32.2793 27.7745C33.111 28.6413 33.7799 29.6432 34.3759 30.6494C34.9622 31.6402 35.5004 32.6432 35.9906 33.6586C35.9999 33.6779 36.0024 33.6993 35.9978 33.7199C35.9931 33.7405 35.9816 33.7594 35.9647 33.774L35.1193 34.5045C34.8558 33.9275 34.5756 33.3573 34.2787 32.7938C33.4033 31.1359 32.4437 29.5183 31.1205 28.1043C31.0422 28.0206 30.8951 27.9287 30.6792 27.8286C30.3126 27.6587 29.8127 27.5182 29.1794 27.4071C27.6095 27.1318 26.038 26.8631 24.4648 26.6008C24.4346 26.5955 24.4249 26.5804 24.4357 26.5554C24.4964 26.4081 24.6713 26.2905 24.809 26.1959C24.8306 26.1815 24.8451 26.1627 24.8527 26.1396C24.8716 26.0823 24.9099 26.0482 24.9677 26.0371Z" fill="#21A14B"/>
</g>
</g>
</svg>
